<?xml version="1.0" encoding="UTF-8" standalone="no" ?>
<svg xmlns:dc="http://purl.org/dc/elements/1.1/" xmlns:cc="http://creativecommons.org/ns#" xmlns:rdf="http://www.w3.org/1999/02/22-rdf-syntax-ns#" xmlns:svg="http://www.w3.org/2000/svg" xmlns="http://www.w3.org/2000/svg" xmlns:xlink="http://www.w3.org/1999/xlink" viewBox="0 0 500 325.77399" height="325.77399" width="500" xml:space="preserve" id="svg2" version="1.1">
    <metadata id="metadata8">
        <rdf:RDF>
            <cc:Work rdf:about="">
                <dc:format>image/svg+xml</dc:format>
                <dc:type rdf:resource="http://purl.org/dc/dcmitype/StillImage" />
                <dc:title />
            </cc:Work>
        </rdf:RDF>
    </metadata>
    <defs id="defs6">
        <clipPath id="clipPath1636" clipPathUnits="userSpaceOnUse">
            <path id="path1634" d="M 0,774 H 594 V 0.015 H 0 Z" />
        </clipPath>
        <clipPath id="clipPath1658" clipPathUnits="userSpaceOnUse">
            <path id="path1656" d="m 402.44199,379.3108 34.73048,90.29528 120.15115,-46.21401 -34.73048,-90.29528 z" />
        </clipPath>
        <linearGradient id="linearGradient1664" spreadMethod="pad" gradientTransform="matrix(22.936005,59.630997,59.630997,-22.936005,468.51601,380.15199)" gradientUnits="userSpaceOnUse" y2="0" x2="1" y1="0" x1="0">
            <stop id="stop1660" offset="0" style="stop-opacity:1;stop-color:#6000FF" />
            <!-- <stop id="stop1662" offset="1" style="stop-opacity:1;stop-color:#6000FF" /> -->
        </linearGradient>
        <clipPath clipPathUnits="userSpaceOnUse" id="clipPath">
            <use height="100%" width="100%" y="0" x="0" id="use" xlink:href="#path1656" />
        </clipPath>
        <clipPath clipPathUnits="userSpaceOnUse" id="clipPathJ" clip-path="url(#clipPath3)">
            <use height="100%" width="100%" y="0" x="0" id="usei" transform="translate(-512.002,-347.783)" xlink:href="#path1634" />
        </clipPath>
    </defs>
    <g transform="matrix(1.3333333,0,0,-1.3333333,0,325.774)" id="g10">
        <g transform="matrix(2.7788183,0,0,2.7788198,-128.27083,-1660.4171)" id="g2512">
            <path clip-path="url(#clipPathJ)" transform="translate(154.17725,600.79099)" d="m 0,0 c -0.644,-1.801 -2.958,-3.265 -5.172,-3.265 h -99.83 c -2.213,0 -3.485,1.464 -2.853,3.265 l 30.707,81.395 c 0.648,1.801 2.963,3.266 5.176,3.266 h 95.884 c 2.209,0 3.493,-1.465 2.858,-3.266 L 0,0" style="fill:#6000FF;fill-opacity:1;fill-rule:nonzero;stroke:none" id="path1640" />
            <path clip-path="url(#clipPath)" transform="translate(-357.82475,253.00799)" d="m 531.79,431.046 c 5.635,0 3.712,-5.504 3.712,-5.504 l -11.588,-33.038 c 0,0 -14.63,-20.847 -52.414,-20.847 -37.798,0 -49.159,18.507 -49.159,18.507 0,0 9.922,27.131 12.287,33.561 2.381,6.437 10.792,6.64 10.792,6.64 l 86.37,0.681" style="fill:url(#linearGradient1664);stroke:none" id="path1666" />
            <path transform="translate(160.48426,645.75599)" d="M 0,0 H -22.25 L -42.641,-14.996 -37.818,0 h -35.601 c 1.553,1.599 3.824,2.574 7.712,3.248 l 16.313,2.886 c 6.501,1.153 15.872,4.41 18.459,12.489 3.796,11.89 -8.529,14.348 -22.502,14.348 -10.847,0 -25.515,-1.961 -31.482,-16.612 h 18.388 c 2.263,5.521 7.111,5.949 11.764,5.949 3.989,0 6.678,-0.985 5.891,-3.425 -0.568,-1.784 -2.087,-2.886 -4.363,-3.315 l -13.427,-2.701 c -10.881,-2.206 -22.83,-7.163 -28.368,-23.53 h 37.002 L -68.21,-42.491 h 16.784 l 3.648,11.419 7.094,4.889 6.391,-16.308 h 22.31 L -24.236,-16.427 0,0" style="fill:#ffffff;fill-opacity:1;fill-rule:nonzero;stroke:none" id="path1670" />
        </g>
    </g>
</svg>